<svg width="190" height="48" viewBox="0 0 190 48" fill="none" xmlns="http://www.w3.org/2000/svg">
  <path d="M48.8217 10.3032C48.0782 9.64904 47.6652 8.74955 47.6652 7.68652C47.6652 6.62349 48.0782 5.80577 48.8217 5.06982C49.5652 4.49742 50.5565 4.08856 51.7956 4.08856C53.0347 4.08856 54.026 4.41565 54.7695 5.06982C55.513 5.724 55.926 6.54171 55.926 7.60475C55.926 8.66778 55.513 9.56727 54.7695 10.3032C54.026 11.0392 53.0347 11.3662 51.7956 11.3662C50.5565 11.3662 49.5652 11.0392 48.8217 10.3032ZM48.4912 14.4736H55.0999V36.879H48.4912V14.4736Z" fill="white"/>
  <path d="M74.8434 35.8978C74.1826 36.3884 73.4391 36.7155 72.4478 36.9608C71.5391 37.2061 70.5478 37.2879 69.5565 37.2879C66.8304 37.2879 64.7652 36.6337 63.2782 35.2436C61.7913 33.8535 61.0478 31.891 61.0478 29.2743V9.56729H67.6565V15.046H73.2739V20.0341H67.6565V29.1925C67.6565 30.1738 67.9043 30.8279 68.4 31.4003C68.8956 31.891 69.5565 32.1363 70.4652 32.1363C71.4565 32.1363 72.3652 31.891 73.1913 31.3186L74.8434 35.8978Z" fill="white"/>
  <path d="M101.361 14.4736V33.1993C101.361 37.2879 100.287 40.3952 98.2217 42.3577C96.0738 44.3202 93.0173 45.3833 89.0521 45.3833C86.9043 45.3833 84.9217 45.138 83.0217 44.5656C81.1217 44.0749 79.5521 43.2572 78.2303 42.276L80.8738 37.615C81.8651 38.4327 83.0217 39.0051 84.3434 39.4139C85.7477 39.8228 87.0695 40.0681 88.5564 40.0681C90.7869 40.0681 92.3564 39.5775 93.3477 38.5962C94.339 37.615 94.8347 36.0613 94.8347 34.017V33.2811C94.0086 34.0988 93.0173 34.753 91.8608 35.1618C90.7043 35.5707 89.4651 35.816 88.1434 35.816C85.1695 35.816 82.7738 34.9983 81.039 33.2811C79.3043 31.5639 78.3956 29.1107 78.3956 25.6763V14.4736H85.0043V24.7768C85.0043 28.4565 86.5738 30.2555 89.6303 30.2555C91.1999 30.2555 92.439 29.7649 93.4303 28.7018C94.4216 27.7206 94.8347 26.1669 94.8347 24.2044V14.4736H101.361Z" fill="white"/>
  <path d="M128.043 16.6814C129.778 18.3169 130.604 20.8518 130.604 24.1227V36.9608H123.996V25.1039C123.996 23.3049 123.583 21.9966 122.839 21.0971C122.013 20.1976 120.939 19.7888 119.452 19.7888C117.8 19.7888 116.478 20.2794 115.487 21.3424C114.496 22.3237 114 23.8773 114 25.8399V36.9608H107.391V14.4736H113.67V17.1721C114.578 16.1908 115.652 15.5366 116.891 14.9642C118.213 14.4736 119.617 14.2283 121.187 14.2283C124.078 14.1465 126.391 15.046 128.043 16.6814Z" fill="white"/>
  <path d="M151.422 31.5639C152.33 31.2368 153.156 30.6644 153.983 29.9284L157.452 33.6899C155.304 36.1431 152.165 37.2879 148.117 37.2879C145.556 37.2879 143.326 36.7973 141.343 35.816C139.361 34.8347 137.874 33.4446 136.8 31.7274C135.726 30.0102 135.23 27.9659 135.23 25.7581C135.23 23.5502 135.726 21.5877 136.8 19.7887C137.874 17.9898 139.278 16.6814 141.178 15.6184C142.996 14.6371 145.061 14.1465 147.374 14.1465C149.522 14.1465 151.504 14.6371 153.239 15.5366C154.974 16.4361 156.461 17.7444 157.452 19.4616C158.526 21.1789 159.022 23.2231 159.022 25.5128L142.252 28.7018C142.748 29.8467 143.491 30.6644 144.483 31.2368C145.474 31.8092 146.796 32.0545 148.283 32.0545C149.439 32.0545 150.513 31.8909 151.422 31.5639ZM143.243 20.6882C142.169 21.7513 141.674 23.2231 141.591 25.1039L152.661 22.9778C152.33 21.833 151.752 20.8518 150.761 20.1976C149.769 19.5434 148.613 19.1346 147.291 19.1346C145.639 19.1346 144.317 19.6252 143.243 20.6882Z" fill="white"/>
  <path d="M172.9 15.046C174.222 14.4736 175.791 14.2283 177.526 14.2283V20.1976C176.783 20.1158 176.287 20.1158 176.039 20.1158C174.139 20.1158 172.652 20.6065 171.578 21.6695C170.504 22.7325 170.009 24.2862 170.009 26.3305V36.9608H163.4V14.4736H169.678V17.4174C170.504 16.3543 171.578 15.5366 172.9 15.046Z" fill="white"/>
  <path d="M181.822 10.3032C181.078 9.64905 180.665 8.74957 180.665 7.68653C180.665 6.6235 181.078 5.80578 181.822 5.06984C182.565 4.41566 183.556 4.00681 184.796 4.00681C186.035 4.00681 187.026 4.33389 187.77 4.98807C188.513 5.64224 188.926 6.45996 188.926 7.52299C188.926 8.58602 188.513 9.48551 187.77 10.2215C187.026 10.9574 186.035 11.2845 184.796 11.2845C183.556 11.3663 182.565 11.0392 181.822 10.3032ZM181.491 14.4736H188.1V36.879H181.491V14.4736Z" fill="white"/>
  <path d="M34.2 15.7002L31.8869 9.07665C31.8869 9.07665 31.8869 8.99488 31.8043 8.99488C31.8043 8.99488 31.8043 8.99488 31.8043 8.91311C31.8043 8.83134 31.7217 8.83134 31.7217 8.83134L25.8565 4.90629C25.8565 5.31515 25.6087 5.72401 25.2783 5.96933L30.3174 9.32197L25.3609 12.6746L25.113 6.0511C24.8652 6.13287 24.7 6.21464 24.3696 6.21464C24.2043 6.21464 24.0391 6.21464 23.9565 6.13287L24.2869 13.4106L22.7174 14.4736C22.9652 14.8007 23.213 15.1278 23.3783 15.4548L24.3696 14.8007L24.6174 19.7887L23.4609 19.1346C23.2956 19.4617 23.1304 19.8705 22.8826 20.1158L24.7 21.0971L24.8652 25.7581L19.6609 26.9029V21.833C19.4956 21.833 19.413 21.833 19.2478 21.833C19 21.833 18.7522 21.833 18.5043 21.7513V27.1482L18.0087 27.23L12.2261 18.3986L14.7869 18.2351C14.7043 17.908 14.7043 17.5809 14.7043 17.2538C14.7043 17.1721 14.7043 17.0903 14.7043 17.0085L11.4826 17.1721L9.91304 15.2095L15.2 11.6116L16.3565 13.8194C16.6869 13.5741 17.0174 13.4106 17.3478 13.247L16.1913 10.9574L23.5435 5.96933C23.1304 5.72401 22.8826 5.23338 22.8826 4.74275C22.8826 4.49744 22.9652 4.25212 23.0478 4.00681H13.3826C13.4652 4.25212 13.5478 4.41566 13.5478 4.66098C13.5478 4.82452 13.5478 4.98807 13.4652 5.15161H22.3869L15.5304 9.8126L13.3 5.4787C13.0522 5.80578 12.7217 6.0511 12.2261 6.0511L14.5391 10.4668L9.16956 14.1465L6.6913 10.385L11.5652 6.0511C11.1522 5.88756 10.9043 5.64224 10.7391 5.23338L5.61738 9.8126C5.53478 9.89437 5.45217 9.97614 5.45217 10.1397L3.96521 16.845C4.04782 16.845 4.13043 16.845 4.21304 16.845C5.03912 16.845 5.69999 17.4991 5.69999 18.3169C5.69999 19.1346 5.03912 19.7887 4.21304 19.7887C4.13043 19.7887 4.13043 19.7887 4.04782 19.7887L7.35217 30.6644C7.35217 30.7462 7.43477 30.8279 7.43477 30.8279L12.5565 37.3697C12.5565 37.3697 12.5565 37.3697 12.6391 37.4514L17.5956 42.5213C17.5956 42.4395 17.5956 42.4395 17.5956 42.3577C17.5956 41.7036 18.0913 41.1312 18.6696 40.9676L13.9609 29.4378L17.3478 28.7019L17.7609 29.356C18.0087 28.8654 18.5043 28.5383 19.0826 28.5383C19.2478 28.5383 19.413 28.5383 19.5783 28.6201V28.2112L24.3696 27.1482L22.9652 30.9915L20.6522 30.092C20.6522 30.5008 20.4043 30.9097 20.0739 31.155L22.5522 32.0545L19 40.8859C19.7435 40.8859 20.3217 41.4583 20.4043 42.1124L28.0043 33.6082C28.0043 33.6082 28.0043 33.6082 28.0043 33.5264L32.0522 25.9216C31.2261 25.9216 30.6478 25.2675 30.6478 24.4497C30.6478 24.0409 30.813 23.7138 31.0609 23.3867L29.7391 22.6508L31.4739 11.5298L33.0435 15.8637L31.8869 22.8961C31.9696 22.8961 32.0522 22.8961 32.2174 22.8961C32.5478 22.8961 32.7956 22.9778 33.0435 23.1414L34.2826 15.9455C34.2 15.8637 34.2 15.7819 34.2 15.7002ZM9.91304 17.4174L6.27825 17.6627L8.92173 15.8637L9.91304 17.4174ZM5.12173 17.0085L6.27825 11.7751L8.34347 14.8824L5.12173 17.0085ZM5.36956 20.1976L10.9869 25.431L12.2261 28.4566L8.09564 29.356L5.36956 20.1976ZM17.1826 40.477L13.3826 36.6337L8.67391 30.5826L12.7217 29.6831L17.1826 40.477ZM13.4652 28.293L12.0609 24.9404C12.0609 24.8586 11.9783 24.7768 11.8956 24.6951L5.61738 18.8075L10.6565 18.4804L16.6043 27.4753L13.4652 28.293ZM20.4869 40.3134L23.4609 32.2998L26.6 33.4446L20.4869 40.3134ZM27.1783 32.4634L23.8739 31.2368L25.6087 26.7393L28.1696 26.1669L27.1783 32.4634ZM28.3348 24.9404L25.8565 25.5128L25.6913 21.7513L28.5826 23.3049L28.3348 24.9404ZM31.0609 25.5128L28.6652 30.0102L29.3261 25.9216L31.0609 25.5128ZM30.5652 24.4497L29.5739 24.6951L29.6565 23.9591L30.5652 24.4497ZM28.7478 22.0784L25.6087 20.3612L25.3609 13.983L30.5652 10.4668L28.7478 22.0784Z" fill="white"/>
  <path d="M18.9999 39.3322C17.3478 39.3322 15.9434 40.7223 15.9434 42.3578C15.9434 43.9932 17.3478 45.3833 18.9999 45.3833C20.6521 45.3833 22.0565 43.9932 22.0565 42.3578C22.0565 40.7223 20.6521 39.3322 18.9999 39.3322ZM18.9999 43.8296C18.1739 43.8296 17.513 43.1755 17.513 42.3578C17.513 41.54 18.1739 40.8859 18.9999 40.8859C19.826 40.8859 20.4869 41.54 20.4869 42.3578C20.4869 43.1755 19.826 43.8296 18.9999 43.8296Z" fill="white"/>
  <path d="M27.5913 31.8092C28.4174 31.8092 29.0782 32.4634 29.0782 33.2811C29.0782 34.0988 28.4174 34.753 27.5913 34.753C26.7652 34.753 26.1043 34.0988 26.1043 33.2811C26.1869 32.4634 26.8478 31.8092 27.5913 31.8092Z" fill="white"/>
  <path d="M32.2173 21.4242C30.5652 21.4242 29.1608 22.8143 29.1608 24.4497C29.1608 26.0852 30.5652 27.4753 32.2173 27.4753C33.8695 27.4753 35.2739 26.0852 35.2739 24.4497C35.2739 22.8143 33.8695 21.4242 32.2173 21.4242ZM32.2173 25.9216C31.3913 25.9216 30.7304 25.2675 30.7304 24.4497C30.7304 23.632 31.3913 22.9779 32.2173 22.9779C33.0434 22.9779 33.7043 23.632 33.7043 24.4497C33.6217 25.2675 32.9608 25.9216 32.2173 25.9216Z" fill="white"/>
  <path d="M24.2869 1.71719C22.6348 1.71719 21.2304 3.10731 21.2304 4.74275C21.2304 6.37818 22.6348 7.7683 24.2869 7.7683C25.9391 7.7683 27.3434 6.37818 27.3434 4.74275C27.3434 3.10731 25.9391 1.71719 24.2869 1.71719ZM24.2869 6.21464C23.4608 6.21464 22.8 5.56046 22.8 4.74275C22.8 3.92503 23.4608 3.27086 24.2869 3.27086C25.113 3.27086 25.7739 3.92503 25.7739 4.74275C25.7739 5.56046 25.113 6.21464 24.2869 6.21464Z" fill="white"/>
  <path d="M4.21302 15.2913C2.56084 15.2913 1.15649 16.6814 1.15649 18.3169C1.15649 19.9523 2.56084 21.3424 4.21302 21.3424C5.86519 21.3424 7.26954 19.9523 7.26954 18.3169C7.26954 16.6814 5.9478 15.2913 4.21302 15.2913ZM4.21302 19.7888C3.38693 19.7888 2.72606 19.1346 2.72606 18.3169C2.72606 17.4992 3.38693 16.845 4.21302 16.845C5.0391 16.845 5.69997 17.4992 5.69997 18.3169C5.69997 19.1346 5.0391 19.7888 4.21302 19.7888Z" fill="white"/>
  <path d="M33.6217 14.3918C34.4478 14.3918 35.1087 15.046 35.1087 15.8637C35.1087 16.6814 34.4478 17.3356 33.6217 17.3356C32.7956 17.3356 32.2173 16.6814 32.2173 15.8637C32.2173 15.046 32.8782 14.3918 33.6217 14.3918Z" fill="white"/>
  <path d="M31.3087 7.76831C32.1348 7.76831 32.7956 8.42248 32.7956 9.2402C32.7956 10.0579 32.1348 10.7121 31.3087 10.7121C30.4826 10.7121 29.8217 10.0579 29.8217 9.2402C29.8217 8.42248 30.4826 7.76831 31.3087 7.76831Z" fill="white"/>
  <path d="M5.94777 9.32199C6.77386 9.32199 7.43473 9.97616 7.43473 10.7939C7.43473 11.6116 6.77386 12.2658 5.94777 12.2658C5.12168 12.2658 4.46082 11.6116 4.46082 10.7939C4.54342 9.97616 5.20429 9.32199 5.94777 9.32199Z" fill="white"/>
  <path d="M8.17824 28.6201C9.08694 28.6201 9.83041 29.4378 9.58259 30.4191C9.49998 30.9097 9.00433 31.4004 8.50868 31.4821C7.51737 31.7274 6.69128 30.9915 6.69128 30.092C6.69128 29.2743 7.35215 28.6201 8.17824 28.6201Z" fill="white"/>
  <path d="M12.9696 35.5707C13.7956 35.5707 14.4565 36.2249 14.4565 37.0426C14.4565 37.8603 13.7956 38.5145 12.9696 38.5145C12.1435 38.5145 11.4826 37.8603 11.4826 37.0426C11.4826 36.2249 12.1435 35.5707 12.9696 35.5707Z" fill="white"/>
  <path d="M11.4826 23.7138C12.3086 23.7138 12.9695 24.368 12.9695 25.1857C12.9695 26.0034 12.3086 26.6576 11.4826 26.6576C10.6565 26.6576 9.99561 26.0034 9.99561 25.1857C10.0782 24.368 10.7391 23.7138 11.4826 23.7138Z" fill="white"/>
  <path d="M25.1956 24.6133C25.9391 24.6133 26.6 25.2675 26.6 26.0852C26.6 26.9029 25.9391 27.5571 25.1956 27.5571C24.4521 27.5571 23.7913 26.9029 23.7913 26.0852C23.7913 25.2675 24.4521 24.6133 25.1956 24.6133Z" fill="white"/>
  <path d="M18.9999 26.9029C17.3478 26.9029 15.9434 28.293 15.9434 29.9284C15.9434 31.5639 17.3478 32.954 18.9999 32.954C20.6521 32.954 22.0565 31.5639 22.0565 29.9284C22.0565 28.2112 20.7347 26.9029 18.9999 26.9029ZM18.9999 31.3186C18.1739 31.3186 17.513 30.6644 17.513 29.8467C17.513 29.029 18.1739 28.3748 18.9999 28.3748C19.826 28.3748 20.4869 29.029 20.4869 29.8467C20.4869 30.6644 19.826 31.3186 18.9999 31.3186Z" fill="white"/>
  <path d="M19.0826 11.0392C15.5304 11.0392 12.7217 13.9012 12.7217 17.3356C12.7217 20.8518 15.613 23.632 19.0826 23.632C22.6348 23.632 25.4435 20.77 25.4435 17.3356C25.4435 13.8194 22.6348 11.0392 19.0826 11.0392ZM19.0826 21.9148C16.6043 21.9148 14.5391 19.8705 14.5391 17.4174C14.5391 14.9642 16.6043 12.9199 19.0826 12.9199C21.5609 12.9199 23.6261 14.9642 23.6261 17.4174C23.6261 19.8705 21.5609 21.9148 19.0826 21.9148Z" fill="white"/>
  <path d="M12.1434 1.63544C10.4913 1.63544 9.08691 3.02556 9.08691 4.66099C9.08691 6.29643 10.4913 7.68654 12.1434 7.68654C13.7956 7.68654 15.2 6.29643 15.2 4.66099C15.2 3.02556 13.7956 1.63544 12.1434 1.63544ZM12.1434 6.13288C11.3173 6.13288 10.6565 5.47871 10.6565 4.66099C10.6565 3.84327 11.3173 3.27087 12.1434 3.27087C12.9695 3.27087 13.6304 3.92505 13.6304 4.74276C13.6304 5.56048 12.9695 6.13288 12.1434 6.13288Z" fill="white"/>
  <path d="M110.53 41.7036C110.861 41.8671 111.026 42.1124 111.191 42.3578C111.356 42.6848 111.439 43.0119 111.439 43.339C111.439 43.7479 111.356 44.075 111.191 44.3203C111.026 44.6474 110.778 44.8109 110.53 44.9745C110.2 45.138 109.952 45.2198 109.539 45.2198C109.209 45.2198 108.961 45.138 108.713 45.0562C108.465 44.8927 108.217 44.7291 108.135 44.4838V45.2198H107.639V39.9046H108.135V42.1942C108.3 41.9489 108.465 41.7854 108.713 41.6218C108.961 41.4583 109.209 41.4583 109.539 41.4583C109.87 41.54 110.2 41.6218 110.53 41.7036ZM110.2 44.7291C110.448 44.6474 110.613 44.402 110.696 44.2385C110.778 43.9932 110.861 43.7479 110.861 43.5026C110.861 43.1755 110.778 42.9302 110.696 42.7666C110.613 42.5213 110.365 42.3578 110.2 42.276C109.952 42.1942 109.704 42.1124 109.456 42.1124C109.209 42.1124 108.961 42.1942 108.713 42.276C108.465 42.3578 108.3 42.6031 108.217 42.7666C108.135 43.0119 108.052 43.2572 108.052 43.5026C108.052 43.8296 108.135 44.075 108.217 44.2385C108.3 44.4838 108.548 44.6474 108.713 44.7291C108.961 44.8109 109.209 44.8927 109.456 44.8927C109.787 44.8927 110.035 44.8109 110.2 44.7291Z" fill="white"/>
  <path d="M118.791 41.54L116.891 45.7922C116.726 46.1193 116.561 46.3646 116.313 46.5281C116.148 46.6917 115.9 46.7734 115.57 46.7734C115.404 46.7734 115.239 46.7734 115.074 46.6917C114.909 46.6099 114.743 46.5281 114.661 46.4463L114.909 46.0375C115.074 46.201 115.322 46.3646 115.57 46.3646C115.735 46.3646 115.9 46.2828 115.983 46.201C116.065 46.1193 116.23 45.9557 116.313 45.7104L116.478 45.3833L114.743 41.6218H115.322L116.726 44.8109L118.13 41.6218H118.791V41.54Z" fill="white"/>
  <path d="M131.43 42.7666H131.926V44.7291C131.678 44.9745 131.43 45.0562 131.1 45.2198C130.77 45.3015 130.439 45.3833 130.109 45.3833C129.613 45.3833 129.117 45.3015 128.704 45.0562C128.291 44.8109 127.961 44.5656 127.713 44.1567C127.465 43.7479 127.383 43.339 127.383 42.8484C127.383 42.3578 127.465 41.9489 127.713 41.54C127.961 41.1312 128.291 40.8041 128.704 40.6405C129.117 40.3952 129.613 40.3135 130.109 40.3135C130.522 40.3135 130.852 40.3952 131.183 40.477C131.513 40.5588 131.761 40.8041 132.009 41.0494L131.678 41.3765C131.265 40.9676 130.77 40.8041 130.109 40.8041C129.696 40.8041 129.283 40.8859 128.952 41.0494C128.622 41.213 128.374 41.4583 128.209 41.7854C128.043 42.1124 127.961 42.4395 127.961 42.8484C127.961 43.2572 128.043 43.5843 128.209 43.9114C128.374 44.2385 128.622 44.4838 128.952 44.6474C129.283 44.8109 129.613 44.8927 130.026 44.8927C130.522 44.8927 131.017 44.7291 131.348 44.4838V42.7666H131.43Z" fill="white"/>
  <path d="M140.187 44.8927V45.3833H136.552V40.3135H140.022V40.8041H137.13V42.5213H139.774V43.0119H137.13V44.8927H140.187Z" fill="white"/>
  <path d="M145.474 45.0562C145.061 44.8109 144.73 44.5656 144.483 44.1567C144.235 43.7479 144.152 43.339 144.152 42.8484C144.152 42.3578 144.235 41.9489 144.483 41.54C144.73 41.1312 145.061 40.8041 145.474 40.6405C145.887 40.3952 146.383 40.3135 146.878 40.3135C147.374 40.3135 147.87 40.3952 148.283 40.6405C148.696 40.8859 149.026 41.1312 149.274 41.54C149.522 41.9489 149.604 42.3578 149.604 42.8484C149.604 43.339 149.522 43.7479 149.274 44.1567C149.026 44.5656 148.696 44.8927 148.283 45.0562C147.87 45.3015 147.457 45.3833 146.878 45.3833C146.3 45.3833 145.887 45.2198 145.474 45.0562ZM147.87 44.6474C148.2 44.4838 148.448 44.2385 148.613 43.9114C148.778 43.5843 148.861 43.2572 148.861 42.8484C148.861 42.4395 148.778 42.1124 148.613 41.7854C148.448 41.4583 148.2 41.213 147.87 41.0494C147.539 40.8859 147.209 40.8041 146.796 40.8041C146.383 40.8041 146.052 40.8859 145.722 41.0494C145.391 41.213 145.143 41.4583 144.978 41.7854C144.813 42.1124 144.73 42.4395 144.73 42.8484C144.73 43.2572 144.813 43.5843 144.978 43.9114C145.143 44.2385 145.391 44.4838 145.722 44.6474C146.052 44.8109 146.383 44.8927 146.796 44.8927C147.209 44.8927 147.539 44.8109 147.87 44.6474Z" fill="white"/>
  <path d="M156.956 43.9932H154.148L153.57 45.3015H152.991L155.304 40.2317H155.8L158.113 45.3015H157.535L156.956 43.9932ZM156.791 43.5026L155.552 40.8041L154.313 43.5026H156.791Z" fill="white"/>
  <path d="M162.904 45.0562C162.491 44.8109 162.161 44.5656 161.913 44.1567C161.665 43.7479 161.583 43.339 161.583 42.8484C161.583 42.3578 161.665 41.9489 161.913 41.54C162.161 41.1312 162.491 40.8041 162.904 40.6405C163.317 40.3952 163.73 40.3135 164.309 40.3135C164.722 40.3135 165.052 40.3952 165.383 40.477C165.713 40.6405 165.961 40.8041 166.209 41.0494L165.878 41.3765C165.465 40.9676 164.97 40.8041 164.391 40.8041C163.978 40.8041 163.648 40.8859 163.317 41.0494C162.987 41.213 162.739 41.4583 162.574 41.7854C162.409 42.1124 162.326 42.4395 162.326 42.8484C162.326 43.2572 162.409 43.5843 162.574 43.9114C162.739 44.2385 162.987 44.4838 163.317 44.6474C163.648 44.8109 163.978 44.8927 164.391 44.8927C164.97 44.8927 165.465 44.7291 165.878 44.3203L166.209 44.6474C165.961 44.8927 165.713 45.0562 165.383 45.2198C165.052 45.3833 164.722 45.3833 164.309 45.3833C163.813 45.3833 163.317 45.2198 162.904 45.0562Z" fill="white"/>
  <path d="M171.413 40.7223H169.596V40.2317H173.726V40.7223H171.909V45.3015H171.33V40.7223H171.413Z" fill="white"/>
  <path d="M177.691 40.3135H178.27V45.3833H177.691V40.3135Z" fill="white"/>
  <path d="M183.887 45.0562C183.474 44.8109 183.143 44.5656 182.896 44.1567C182.648 43.7479 182.565 43.339 182.565 42.8484C182.565 42.3578 182.648 41.9489 182.896 41.54C183.143 41.1312 183.474 40.8041 183.887 40.6405C184.3 40.3952 184.796 40.3135 185.291 40.3135C185.787 40.3135 186.283 40.3952 186.696 40.6405C187.109 40.8859 187.439 41.1312 187.687 41.54C187.935 41.9489 188.017 42.3578 188.017 42.8484C188.017 43.339 187.935 43.7479 187.687 44.1567C187.439 44.5656 187.109 44.8927 186.696 45.0562C186.283 45.3015 185.87 45.3833 185.291 45.3833C184.796 45.3833 184.3 45.2198 183.887 45.0562ZM186.365 44.6474C186.696 44.4838 186.943 44.2385 187.109 43.9114C187.274 43.5843 187.356 43.2572 187.356 42.8484C187.356 42.4395 187.274 42.1124 187.109 41.7854C186.943 41.4583 186.696 41.213 186.365 41.0494C186.035 40.8859 185.704 40.8041 185.291 40.8041C184.878 40.8041 184.548 40.8859 184.217 41.0494C183.887 41.213 183.639 41.4583 183.474 41.7854C183.309 42.1124 183.226 42.4395 183.226 42.8484C183.226 43.2572 183.309 43.5843 183.474 43.9114C183.639 44.2385 183.887 44.4838 184.217 44.6474C184.548 44.8109 184.878 44.8927 185.291 44.8927C185.704 44.8927 186.035 44.8109 186.365 44.6474Z" fill="white"/>
</svg>